<svg width="369" height="70" viewBox="20 0 369 70" fill="none" xmlns="http://www.w3.org/2000/svg">
<path d="M105.776 9H125.5L105.776 35L86.0522 61H65.4913L105.776 9Z" fill="#DCD53B"/>
<path d="M85.483 9H105.796L85.483 35L65.1703 61H43.9957L85.483 9Z" fill="#D84444"/>
<path d="M64.5886 9H85.1956L64.5886 35L43.9816 61H22.5L64.5886 9Z" fill="#454D93"/>
<path d="M140.158 58.378C137.806 58.378 135.706 57.944 133.858 57.076C132.01 56.18 130.568 54.948 129.532 53.38C128.524 51.784 128.02 49.978 128.02 47.962V38.554C128.02 36.538 128.524 34.746 129.532 33.178C130.568 31.61 131.996 30.392 133.816 29.524C135.636 28.656 137.722 28.222 140.074 28.222C142.426 28.222 144.512 28.6 146.332 29.356C148.152 30.084 149.566 31.106 150.574 32.422C151.61 33.738 152.128 35.25 152.128 36.958C152.128 37.798 151.848 38.456 151.288 38.932C150.728 39.408 149.986 39.646 149.062 39.646C148.866 39.646 148.572 39.618 148.18 39.562C148.236 39.226 148.264 38.694 148.264 37.966C148.264 36.762 147.914 35.684 147.214 34.732C146.542 33.78 145.576 33.038 144.316 32.506C143.084 31.974 141.67 31.708 140.074 31.708C138.506 31.708 137.106 32.002 135.874 32.59C134.642 33.15 133.676 33.962 132.976 35.026C132.304 36.062 131.968 37.238 131.968 38.554V47.962C131.968 49.306 132.304 50.51 132.976 51.574C133.676 52.61 134.642 53.422 135.874 54.01C137.134 54.598 138.562 54.892 140.158 54.892C141.782 54.892 143.224 54.626 144.484 54.094C145.744 53.562 146.724 52.834 147.424 51.91C148.124 50.958 148.474 49.866 148.474 48.634C148.474 48.186 148.446 47.654 148.39 47.038C148.782 46.982 149.062 46.954 149.23 46.954C150.154 46.954 150.896 47.22 151.456 47.752C152.044 48.284 152.338 48.998 152.338 49.894C152.338 51.546 151.82 53.016 150.784 54.304C149.748 55.592 148.306 56.6 146.458 57.328C144.638 58.028 142.538 58.378 140.158 58.378ZM168.197 58.378C165.873 58.378 163.787 57.93 161.939 57.034C160.119 56.11 158.691 54.85 157.655 53.254C156.619 51.63 156.101 49.838 156.101 47.878V38.638C156.101 36.678 156.619 34.914 157.655 33.346C158.691 31.75 160.119 30.504 161.939 29.608C163.787 28.684 165.873 28.222 168.197 28.222C170.549 28.222 172.635 28.684 174.455 29.608C176.303 30.504 177.745 31.75 178.781 33.346C179.817 34.914 180.335 36.678 180.335 38.638V47.878C180.335 49.838 179.817 51.63 178.781 53.254C177.745 54.85 176.303 56.11 174.455 57.034C172.607 57.93 170.521 58.378 168.197 58.378ZM168.197 54.934C170.801 54.934 172.831 54.29 174.287 53.002C175.743 51.714 176.471 49.992 176.471 47.836V38.722C176.471 36.566 175.743 34.858 174.287 33.598C172.831 32.31 170.801 31.666 168.197 31.666C165.621 31.666 163.605 32.31 162.149 33.598C160.693 34.858 159.965 36.566 159.965 38.722V47.836C159.965 49.992 160.693 51.714 162.149 53.002C163.605 54.29 165.621 54.934 168.197 54.934ZM187.223 58C186.663 58 186.173 57.804 185.753 57.412C185.361 56.992 185.165 56.502 185.165 55.942V31.498C185.165 29.314 186.481 28.222 189.113 28.222V54.514H202.007C202.987 54.514 203.743 54.822 204.275 55.438C204.807 56.026 205.073 56.88 205.073 58H187.223ZM217.785 58.378C215.461 58.378 213.375 57.93 211.527 57.034C209.707 56.11 208.279 54.85 207.243 53.254C206.207 51.63 205.689 49.838 205.689 47.878V38.638C205.689 36.678 206.207 34.914 207.243 33.346C208.279 31.75 209.707 30.504 211.527 29.608C213.375 28.684 215.461 28.222 217.785 28.222C220.137 28.222 222.223 28.684 224.043 29.608C225.891 30.504 227.333 31.75 228.369 33.346C229.405 34.914 229.923 36.678 229.923 38.638V47.878C229.923 49.838 229.405 51.63 228.369 53.254C227.333 54.85 225.891 56.11 224.043 57.034C222.195 57.93 220.109 58.378 217.785 58.378ZM217.785 54.934C220.389 54.934 222.419 54.29 223.875 53.002C225.331 51.714 226.059 49.992 226.059 47.836V38.722C226.059 36.566 225.331 34.858 223.875 33.598C222.419 32.31 220.389 31.666 217.785 31.666C215.209 31.666 213.193 32.31 211.737 33.598C210.281 34.858 209.553 36.566 209.553 38.722V47.836C209.553 49.992 210.281 51.714 211.737 53.002C213.193 54.29 215.209 54.934 217.785 54.934ZM246.303 58.378C244.091 58.378 242.089 57.93 240.297 57.034C238.505 56.138 237.091 54.906 236.055 53.338C235.047 51.742 234.543 49.964 234.543 48.004V31.498C234.543 30.434 234.879 29.622 235.551 29.062C236.223 28.502 237.203 28.222 238.491 28.222V48.004C238.491 50.048 239.205 51.7 240.633 52.96C242.089 54.22 243.979 54.85 246.303 54.85C248.627 54.85 250.503 54.22 251.931 52.96C253.359 51.7 254.073 50.048 254.073 48.004V31.498C254.073 30.434 254.409 29.622 255.081 29.062C255.753 28.502 256.733 28.222 258.021 28.222V48.004C258.021 49.964 257.517 51.742 256.508 53.338C255.501 54.906 254.101 56.138 252.309 57.034C250.517 57.93 248.515 58.378 246.303 58.378ZM263.71 30.448C263.71 29.916 263.892 29.482 264.256 29.146C264.648 28.782 265.138 28.6 265.726 28.6H277.318C280.034 28.6 282.19 29.398 283.786 30.994C285.41 32.562 286.222 34.662 286.222 37.294C286.222 40.598 284.78 42.936 281.896 44.308V44.434C283.156 44.966 284.122 45.778 284.794 46.87C285.466 47.934 285.802 49.236 285.802 50.776V55.102C285.802 56.166 285.466 56.978 284.794 57.538C284.122 58.098 283.142 58.378 281.854 58.378V51.028C281.854 49.376 281.476 48.13 280.72 47.29C279.992 46.422 278.9 45.988 277.444 45.988H267.616V55.102C267.616 56.166 267.28 56.978 266.608 57.538C265.964 58.098 264.998 58.378 263.71 58.378V30.448ZM277.192 42.586C278.732 42.586 279.95 42.11 280.846 41.158C281.77 40.206 282.232 38.904 282.232 37.252C282.232 35.572 281.798 34.284 280.93 33.388C280.062 32.492 278.816 32.044 277.192 32.044H267.616V42.586H277.192ZM292.522 31.498C292.522 30.462 292.858 29.664 293.53 29.104C294.23 28.516 295.21 28.222 296.47 28.222V55.102C296.47 56.138 296.12 56.95 295.42 57.538C294.748 58.098 293.782 58.378 292.522 58.378V31.498Z" fill="#070707"/>
<path d="M306.794 64.148C304.298 64.148 302.234 63.236 300.602 61.412L317.594 37.58L301.394 14.468C301.97 13.844 302.762 13.364 303.77 13.028C304.826 12.644 305.906 12.452 307.01 12.452C308.546 12.452 309.962 12.716 311.258 13.244C312.602 13.724 313.514 14.348 313.994 15.116L322.85 28.94L320.762 31.892L321.554 32.468L333.002 15.116C333.482 14.348 334.37 13.724 335.666 13.244C337.01 12.716 338.45 12.452 339.986 12.452C341.09 12.452 342.146 12.644 343.154 13.028C344.21 13.364 345.026 13.844 345.602 14.468L329.402 37.58L346.394 61.412C344.762 63.236 342.698 64.148 340.202 64.148C337.562 64.148 335.594 63.212 334.298 61.34L323.498 45.284L312.698 61.34C312.122 62.204 311.306 62.9 310.25 63.428C309.194 63.908 308.042 64.148 306.794 64.148Z" fill="#070707"/>
</svg>
